<svg xmlns="http://www.w3.org/2000/svg" width="1024" height="1024" viewBox="0 0 1024 1024"><defs><filter id="blur" x="-80%" y="-80%" width="260%" height="260%"><feGaussianBlur stdDeviation="13"/></filter><radialGradient id="fade"><stop stop-color="#fff" stop-opacity=".9"/><stop offset=".2" stop-color="#b9eaff" stop-opacity=".42"/><stop offset="1" stop-color="#b9eaff" stop-opacity="0"/></radialGradient></defs><g fill="none" stroke="#8bceff" opacity="0.9" stroke-width="27"><ellipse cx="512" cy="594" rx="276" ry="93"/><ellipse cx="512" cy="594" rx="186" ry="55"/></g><ellipse cx="276" cy="552" rx="43" ry="21" fill="none" stroke="#f2f8ff" stroke-width="9" transform="rotate(-22 276 552)" opacity="0.8"/><ellipse cx="354" cy="628" rx="43" ry="21" fill="none" stroke="#f2f8ff" stroke-width="9" transform="rotate(22 354 628)" opacity="0.8"/><ellipse cx="432" cy="552" rx="43" ry="21" fill="none" stroke="#f2f8ff" stroke-width="9" transform="rotate(-22 432 552)" opacity="0.8"/><ellipse cx="510" cy="628" rx="43" ry="21" fill="none" stroke="#f2f8ff" stroke-width="9" transform="rotate(22 510 628)" opacity="0.8"/><ellipse cx="588" cy="552" rx="43" ry="21" fill="none" stroke="#f2f8ff" stroke-width="9" transform="rotate(-22 588 552)" opacity="0.8"/><ellipse cx="666" cy="628" rx="43" ry="21" fill="none" stroke="#f2f8ff" stroke-width="9" transform="rotate(22 666 628)" opacity="0.8"/><ellipse cx="744" cy="552" rx="43" ry="21" fill="none" stroke="#f2f8ff" stroke-width="9" transform="rotate(-22 744 552)" opacity="0.8"/><path d="M512 448l41 72-41 72-41-72Z" fill="#a995db" opacity="0.9"/></svg>